<svg width="273" height="42" viewBox="0 0 273 42" fill="none" xmlns="http://www.w3.org/2000/svg">
<path d="M0 9.87637V20.1219L8.19867 16.4085L3.59041 40.9933H29.4503L40.848 29.0812L44.7292 35.0428C46.2168 37.3358 48.3308 39.2037 50.8698 40.2215C51.9548 40.6577 53.1627 40.9597 54.4378 40.9821H65.0637L51.0376 18.1981L68.106 0.70459H50.9481L15.6256 37.8838L22.3814 0.70459H14.2722L0 9.87637Z" fill="#0BBBEF"/>
<path d="M23.2986 0.70459L32.7164 15.8939L43.4653 4.78715C43.4653 4.78715 43.208 4.42923 42.7271 3.91471C40.7249 1.8231 37.9063 0.70459 35.0093 0.70459H23.2874H23.2986Z" fill="#0BBBEF"/>
<path d="M104.066 15.3683H94.2455C94.2903 14.3281 94.1784 13.3997 93.9212 12.572C93.6639 11.7443 93.2724 11.0397 92.7356 10.4581C92.1987 9.87644 91.5164 9.42903 90.6887 9.11585C89.861 8.80267 88.9214 8.65726 87.8589 8.65726C85.812 8.65726 83.9441 9.17177 82.2663 10.1896C80.5886 11.2186 79.1792 12.6951 78.0495 14.6189C76.9198 16.5428 76.1145 18.8581 75.6559 21.5649C75.2421 24.1822 75.2533 26.3633 75.7007 28.0969C76.1369 29.8306 76.9534 31.1393 78.139 32.0117C79.3246 32.8842 80.8346 33.3204 82.669 33.3204C83.8434 33.3204 84.9284 33.175 85.9462 32.8954C86.964 32.6045 87.8812 32.1907 88.7089 31.6426C89.5366 31.0946 90.2525 30.4346 90.8565 29.6629C91.4605 28.8799 91.9302 28.0187 92.2658 27.0567H102.187C101.706 28.8687 100.901 30.6472 99.7822 32.4144C98.6525 34.1816 97.2431 35.7811 95.543 37.224C93.8429 38.6669 91.8631 39.8189 89.6149 40.6914C87.3667 41.5526 84.8613 41.9888 82.1097 41.9888C78.3403 41.9888 75.1079 41.1388 72.3899 39.4498C69.6719 37.7609 67.7145 35.3113 66.5065 32.1012C65.2985 28.8911 65.0636 24.9987 65.813 20.4128C66.5401 15.9947 67.9941 12.27 70.164 9.2277C72.334 6.18536 74.9625 3.89241 78.0719 2.33768C81.1814 0.782956 84.481 0 88.0154 0C90.5545 0 92.8586 0.346738 94.9055 1.02903C96.9635 1.71132 98.6972 2.70679 100.118 4.02663C101.538 5.33529 102.59 6.94594 103.294 8.84741C103.988 10.7489 104.267 12.93 104.1 15.3683H104.066Z" fill="white"/>
<path d="M272.256 21.6432C271.507 26.0501 270.053 29.7636 267.872 32.7836C265.691 35.8147 263.051 38.0965 259.953 39.6624C256.843 41.2171 253.51 42.0001 249.942 42.0001C246.173 42.0001 242.918 41.1612 240.166 39.4722C237.415 37.7833 235.413 35.3561 234.171 32.1572C232.929 28.9694 232.683 25.077 233.444 20.4799C234.16 16.0842 235.614 12.3708 237.784 9.31723C239.954 6.2637 242.616 3.94838 245.748 2.37128C248.879 0.794187 252.235 0.0112305 255.814 0.0112305C259.393 0.0112305 262.816 0.861297 265.556 2.55025C268.297 4.2392 270.288 6.69992 271.529 9.92122C272.771 13.1425 273.017 17.0573 272.256 21.6432ZM262.357 20.4799C262.771 17.9297 262.771 15.771 262.357 14.0038C261.955 12.2365 261.172 10.9055 259.997 10.0107C258.834 9.1159 257.313 8.66849 255.434 8.66849C253.353 8.66849 251.486 9.183 249.819 10.2008C248.152 11.2187 246.754 12.6951 245.636 14.6301C244.517 16.5652 243.734 18.9029 243.298 21.6432C242.828 24.227 242.817 26.3857 243.253 28.1194C243.69 29.8531 244.506 31.1617 245.703 32.0341C246.9 32.9066 248.421 33.3428 250.255 33.3428C252.336 33.3428 254.192 32.8395 255.837 31.844C257.481 30.8485 258.857 29.3945 259.975 27.4706C261.094 25.5468 261.876 23.2315 262.335 20.4911L262.357 20.4799Z" fill="white"/>
<path d="M108.988 41.4409H98.3729L118.942 0.570557H132.096L139.098 41.4409H128.483L123.998 10.872H123.674L108.988 41.4409ZM110.263 25.3567H132.454L131.156 32.8619H108.965L110.263 25.3567Z" fill="white"/>
<path d="M168.626 12.874C168.716 11.3864 168.324 10.2232 167.43 9.40666C166.535 8.57897 165.126 8.16512 163.202 8.16512C161.927 8.16512 160.83 8.33289 159.924 8.65726C159.018 8.98163 158.303 9.44022 157.788 10.0107C157.274 10.5923 156.949 11.2522 156.826 12.0128C156.681 12.6168 156.703 13.1425 156.904 13.6123C157.106 14.082 157.441 14.4959 157.9 14.8538C158.37 15.2117 158.951 15.5249 159.667 15.7933C160.383 16.0618 161.177 16.2967 162.072 16.4868L165.428 17.281C167.374 17.7172 169.051 18.2988 170.483 19.0258C171.915 19.7529 173.078 20.6253 173.962 21.6432C174.857 22.661 175.461 23.8242 175.796 25.1441C176.132 26.4639 176.154 27.9404 175.874 29.5734C175.438 32.1571 174.42 34.3718 172.832 36.2173C171.244 38.0629 169.152 39.4834 166.58 40.4677C163.996 41.452 161.009 41.9441 157.598 41.9441C154.186 41.9441 151.301 41.4296 148.929 40.4006C146.558 39.3715 144.836 37.8056 143.773 35.7252C142.711 33.6336 142.42 31.0051 142.912 27.8173H152.375C152.218 29.1372 152.375 30.2333 152.867 31.1057C153.348 31.9894 154.108 32.6493 155.126 33.0967C156.144 33.5441 157.385 33.779 158.839 33.779C160.182 33.779 161.356 33.6 162.352 33.2421C163.347 32.8842 164.152 32.3808 164.756 31.7433C165.36 31.1057 165.73 30.3675 165.864 29.551C165.998 28.7904 165.864 28.1305 165.495 27.5713C165.114 27.012 164.477 26.531 163.571 26.1172C162.665 25.7033 161.49 25.3342 160.059 24.9987L155.965 24.0032C152.576 23.1755 150.014 21.8557 148.281 20.0549C146.547 18.2429 145.943 15.7934 146.446 12.6951C146.871 10.1561 147.923 7.93023 149.612 6.02876C151.29 4.1273 153.426 2.65087 156.021 1.58828C158.605 0.525699 161.457 0 164.577 0C167.698 0 170.405 0.536884 172.564 1.61065C174.722 2.68442 176.277 4.18322 177.25 6.11825C178.223 8.05327 178.503 10.3015 178.089 12.874H168.626Z" fill="white"/>
<path d="M193.916 0.570557L187.127 41.4409H177.25L184.039 0.570557H193.916Z" fill="white"/>
<path d="M233.209 0.570557L226.42 41.4409H218.042L205.727 17.8515H205.47L201.522 41.4409H191.645L198.435 0.570557H206.935L219.149 24.1152H219.485L223.355 0.570557H233.209Z" fill="white"/>
</svg>
